<?xml version="1.0" encoding="UTF-8"?>
<svg width="64" height="64" viewBox="0 0 64 64" xmlns="http://www.w3.org/2000/svg">
  <defs>
    <linearGradient id="bg_gradient" x1="0%" y1="0%" x2="100%" y2="100%">
      <stop offset="0%" style="stop-color:#1e88e5;stop-opacity:1" />
      <stop offset="100%" style="stop-color:#1976d2;stop-opacity:1" />
    </linearGradient>
    <linearGradient id="fingerprint_gradient" x1="0%" y1="0%" x2="100%" y2="100%">
      <stop offset="0%" style="stop-color:#42a5f5;stop-opacity:1" />
      <stop offset="100%" style="stop-color:#1e88e5;stop-opacity:1" />
    </linearGradient>
  </defs>
  
  <!-- Background circle -->
  <circle cx="32" cy="32" r="30" fill="url(#bg_gradient)" stroke="#0d47a1" stroke-width="2"/>
  
  <!-- Fingerprint pattern -->
  <g fill="none" stroke="url(#fingerprint_gradient)" stroke-width="2" stroke-linecap="round">
    <!-- Center point -->
    <circle cx="32" cy="32" r="3" fill="#42a5f5"/>
    
    <!-- Fingerprint curves -->
    <path d="M 20 32 Q 26 22 32 32 Q 38 42 44 32"/>
    <path d="M 18 32 Q 25 18 32 32 Q 39 46 46 32"/>
    <path d="M 16 32 Q 24 14 32 32 Q 40 50 48 32"/>
    
    <!-- Side curves -->
    <path d="M 32 16 Q 42 22 32 32 Q 22 42 32 48"/>
    <path d="M 32 14 Q 45 20 32 32 Q 19 44 32 50"/>
    
    <!-- Cross lines -->
    <path d="M 24 24 Q 28 28 32 32 Q 36 36 40 40"/>
    <path d="M 24 40 Q 28 36 32 32 Q 36 28 40 24"/>
    
    <!-- Outer ring details -->
    <circle cx="32" cy="32" r="24" stroke-dasharray="3,2"/>
    <circle cx="32" cy="32" r="20" stroke-dasharray="2,3"/>
  </g>
  
  <!-- Medical cross accent -->
  <g fill="#ffffff" opacity="0.8">
    <rect x="30" y="20" width="4" height="12" rx="2"/>
    <rect x="26" y="24" width="12" height="4" rx="2"/>
  </g>
</svg>